<svg width="48" height="48" viewBox="0 0 48 48" fill="none" xmlns="http://www.w3.org/2000/svg">
<g clip-path="url(#clip0_22_10)">
<path d="M42.58 11.7821L22.58 31.7821C21.8 32.5621 20.54 32.5621 19.76 31.7821L14.1 26.1221C13.32 25.3421 13.32 24.0821 14.1 23.3021C14.88 22.5221 16.14 22.5221 16.92 23.3021L21.16 27.5421L39.74 8.96206C40.52 8.18206 41.78 8.18206 42.56 8.96206C43.36 9.74206 43.36 11.0021 42.58 11.7821ZM24 40.0021C14.58 40.0021 7.04 31.8221 8.1 22.2021C8.88 15.1621 14.34 9.38206 21.32 8.22206C24.94 7.62206 28.38 8.26206 31.3 9.78206C32.08 10.1821 33.02 10.0421 33.64 9.42206C34.6 8.46206 34.36 6.84206 33.16 6.22206C30.22 4.72206 26.9 3.90206 23.36 4.00206C13.08 4.32206 4.54 12.6821 4.02 22.9421C3.44 34.4821 12.6 44.0021 24 44.0021C26.4 44.0021 28.68 43.5821 30.82 42.8021C32.18 42.3021 32.56 40.5421 31.52 39.5021C30.98 38.9621 30.16 38.7621 29.44 39.0421C27.74 39.6621 25.9 40.0021 24 40.0021ZM38 30.0021H34C32.9 30.0021 32 30.9021 32 32.0021C32 33.1021 32.9 34.0021 34 34.0021H38V38.0021C38 39.1021 38.9 40.0021 40 40.0021C41.1 40.0021 42 39.1021 42 38.0021V34.0021H46C47.1 34.0021 48 33.1021 48 32.0021C48 30.9021 47.1 30.0021 46 30.0021H42V26.0021C42 24.9021 41.1 24.0021 40 24.0021C38.9 24.0021 38 24.9021 38 26.0021V30.0021Z" fill="url(#paint0_linear_22_10)"/>
</g>
<defs>
<linearGradient id="paint0_linear_22_10" x1="25.9969" y1="3.99387" x2="25.9969" y2="45.4383" gradientUnits="userSpaceOnUse">
<stop stop-color="#2B63BC"/>
<stop offset="1" stop-color="#0A229A"/>
</linearGradient>
<clipPath id="clip0_22_10">
<rect width="48" height="48" fill="white"/>
</clipPath>
</defs>
</svg>
