<svg width="24" height="24" viewBox="0 0 24 24" fill="none" xmlns="http://www.w3.org/2000/svg">
<path d="M21.24 3.6H16.2001V2.34C16.2001 1.78305 15.9788 1.2489 15.5849 0.855048C15.1911 0.461248 14.657 0.239998 14.1 0.239998H9.90004C9.34304 0.239998 8.80894 0.461248 8.41514 0.855098C8.02129 1.2489 7.80009 1.78305 7.80009 2.34V3.6H2.76004C2.53724 3.6 2.32359 3.6885 2.16609 3.846C2.00854 4.00355 1.92004 4.21725 1.92004 4.44C1.92004 4.6628 2.00854 4.8764 2.16609 5.034C2.32359 5.1915 2.53724 5.28 2.76004 5.28H3.65254L4.65004 21.2883C4.72459 22.698 5.80504 23.76 7.17004 23.76H16.83C18.2019 23.76 19.2608 22.7216 19.35 21.2925L20.3475 5.28H21.24C21.4628 5.28 21.6765 5.1915 21.834 5.034C21.9915 4.8764 22.08 4.6628 22.08 4.44C22.08 4.21725 21.9915 4.0036 21.834 3.846C21.6765 3.6885 21.4628 3.6 21.24 3.6ZM8.66999 20.4H8.64004C8.42234 20.4002 8.21314 20.3158 8.05639 20.1647C7.89969 20.0136 7.80779 19.8075 7.80004 19.59L7.38004 7.82995C7.37209 7.6072 7.45304 7.39035 7.60489 7.22715C7.75684 7.06405 7.96734 6.96795 8.19009 6.96C8.41289 6.9521 8.62974 7.03295 8.79284 7.1849C8.95594 7.33685 9.05214 7.5473 9.06004 7.7701L9.48004 19.5301C9.48399 19.6404 9.46624 19.7505 9.42774 19.8539C9.38914 19.9573 9.33059 20.0522 9.25534 20.133C9.18009 20.2138 9.08964 20.279 8.98924 20.3248C8.88879 20.3706 8.78029 20.3962 8.66999 20.4ZM12.84 19.56C12.84 19.7828 12.7515 19.9965 12.594 20.154C12.4364 20.3116 12.2228 20.4 12.0001 20.4C11.7773 20.4 11.5636 20.3116 11.4061 20.154C11.2486 19.9965 11.16 19.7828 11.16 19.56V7.8C11.16 7.57725 11.2485 7.3636 11.4061 7.206C11.5636 7.0485 11.7773 6.96 12.0001 6.96C12.2228 6.96 12.4365 7.0485 12.594 7.206C12.7515 7.3636 12.84 7.57725 12.84 7.8V19.56ZM14.52 3.6H9.48004V2.34C9.47944 2.28465 9.48989 2.22975 9.51074 2.17855C9.53159 2.1273 9.56254 2.08075 9.60159 2.0416C9.64079 2.0025 9.68729 1.97155 9.73854 1.9507C9.78979 1.9298 9.84469 1.91935 9.90004 1.92H14.1C14.1554 1.91935 14.2103 1.9298 14.2615 1.9507C14.3128 1.97155 14.3593 2.0025 14.3985 2.0416C14.4375 2.08075 14.4685 2.1273 14.4893 2.17855C14.5102 2.2298 14.5206 2.28465 14.52 2.34V3.6ZM16.2001 19.59C16.1923 19.8075 16.1004 20.0136 15.9437 20.1647C15.7869 20.3158 15.5778 20.4002 15.36 20.4H15.3296C15.2193 20.3961 15.1108 20.3705 15.0105 20.3247C14.9101 20.2788 14.8197 20.2136 14.7446 20.1328C14.6694 20.052 14.6109 19.9572 14.5723 19.8539C14.5338 19.7504 14.5161 19.6404 14.52 19.5301L14.94 7.7701C14.944 7.65975 14.9696 7.5513 15.0154 7.4509C15.0613 7.3505 15.1265 7.2601 15.2072 7.1849C15.288 7.1096 15.3828 7.0511 15.4862 7.0125C15.5896 6.97395 15.6996 6.95605 15.81 6.96C15.9203 6.96395 16.0287 6.98955 16.1292 7.0354C16.2295 7.08125 16.32 7.1464 16.3952 7.22715C16.4704 7.30795 16.5289 7.4028 16.5675 7.5062C16.6061 7.60965 16.624 7.71965 16.62 7.82995L16.2001 19.59Z" fill="url(#paint0_linear_7_114)"/>
<defs>
<linearGradient id="paint0_linear_7_114" x1="12" y1="0.239998" x2="12" y2="24.6043" gradientUnits="userSpaceOnUse">
<stop stop-color="#BC432B"/>
<stop offset="1" stop-color="#9A1414"/>
</linearGradient>
</defs>
</svg>
