<svg width="207" height="52" viewBox="0 0 207 52" fill="none" xmlns="http://www.w3.org/2000/svg">
<path d="M60.024 17.04H71.304C71.944 17.04 72.472 17.264 72.888 17.712C73.336 18.128 73.56 18.656 73.56 19.296C73.56 19.904 73.336 20.416 72.888 20.832C72.472 21.248 71.944 21.456 71.304 21.456H60.024C59.384 21.456 58.84 21.248 58.392 20.832C57.976 20.384 57.768 19.856 57.768 19.248C57.768 18.608 57.976 18.08 58.392 17.664C58.84 17.248 59.384 17.04 60.024 17.04ZM65.064 10.8C65.768 10.8 66.344 11.04 66.792 11.52C67.24 11.968 67.464 12.544 67.464 13.248V35.52C67.464 36.096 67.56 36.56 67.752 36.912C67.944 37.264 68.2 37.504 68.52 37.632C68.872 37.76 69.224 37.824 69.576 37.824C69.928 37.824 70.232 37.76 70.488 37.632C70.776 37.504 71.112 37.44 71.496 37.44C71.88 37.44 72.232 37.616 72.552 37.968C72.872 38.32 73.032 38.8 73.032 39.408C73.032 40.176 72.616 40.8 71.784 41.28C70.952 41.76 70.056 42 69.096 42C68.552 42 67.912 41.952 67.176 41.856C66.44 41.76 65.72 41.52 65.016 41.136C64.344 40.752 63.784 40.144 63.336 39.312C62.888 38.448 62.664 37.248 62.664 35.712V13.248C62.664 12.544 62.888 11.968 63.336 11.52C63.816 11.04 64.392 10.8 65.064 10.8Z" fill="#141414"/>
<path d="M99.5636 16.368C100.268 16.368 100.844 16.608 101.292 17.088C101.74 17.536 101.964 18.112 101.964 18.816V39.552C101.964 40.256 101.74 40.848 101.292 41.328C100.844 41.776 100.268 42 99.5636 42C98.8916 42 98.3156 41.776 97.8356 41.328C97.3876 40.848 97.1636 40.256 97.1636 39.552V36.096L98.1716 36.24C98.1716 36.816 97.9316 37.456 97.4516 38.16C97.0036 38.864 96.3796 39.552 95.5796 40.224C94.7796 40.864 93.8356 41.408 92.7476 41.856C91.6596 42.272 90.4916 42.48 89.2436 42.48C87.0356 42.48 85.0516 41.92 83.2916 40.8C81.5316 39.648 80.1396 38.08 79.1156 36.096C78.0916 34.112 77.5796 31.856 77.5796 29.328C77.5796 26.736 78.0916 24.464 79.1156 22.512C80.1396 20.528 81.5156 18.976 83.2436 17.856C85.0036 16.736 86.9556 16.176 89.0996 16.176C90.4756 16.176 91.7396 16.4 92.8916 16.848C94.0756 17.296 95.0996 17.872 95.9636 18.576C96.8276 19.28 97.4836 20.032 97.9316 20.832C98.4116 21.6 98.6516 22.336 98.6516 23.04L97.1636 23.184V18.816C97.1636 18.144 97.3876 17.568 97.8356 17.088C98.3156 16.608 98.8916 16.368 99.5636 16.368ZM89.7716 38.064C91.2756 38.064 92.6036 37.68 93.7556 36.912C94.9076 36.144 95.8036 35.104 96.4436 33.792C97.0836 32.448 97.4036 30.96 97.4036 29.328C97.4036 27.664 97.0836 26.176 96.4436 24.864C95.8036 23.552 94.9076 22.512 93.7556 21.744C92.6036 20.976 91.2756 20.592 89.7716 20.592C88.2996 20.592 86.9876 20.976 85.8356 21.744C84.7156 22.512 83.8196 23.552 83.1476 24.864C82.5076 26.176 82.1876 27.664 82.1876 29.328C82.1876 30.96 82.5076 32.448 83.1476 33.792C83.8196 35.104 84.7156 36.144 85.8356 36.912C86.9876 37.68 88.2996 38.064 89.7716 38.064Z" fill="#141414"/>
<path d="M107.2 38.064C106.912 37.616 106.784 37.104 106.816 36.528C106.848 35.92 107.184 35.408 107.824 34.992C108.272 34.704 108.736 34.592 109.216 34.656C109.728 34.688 110.208 34.928 110.656 35.376C111.552 36.368 112.544 37.152 113.632 37.728C114.752 38.304 116.096 38.592 117.664 38.592C118.304 38.56 118.96 38.464 119.632 38.304C120.304 38.112 120.88 37.792 121.36 37.344C121.84 36.864 122.08 36.176 122.08 35.28C122.08 34.48 121.824 33.84 121.312 33.36C120.8 32.88 120.128 32.496 119.296 32.208C118.464 31.888 117.568 31.6 116.608 31.344C115.584 31.056 114.544 30.736 113.488 30.384C112.464 30.032 111.536 29.584 110.704 29.04C109.872 28.464 109.184 27.728 108.64 26.832C108.128 25.936 107.872 24.832 107.872 23.52C107.872 22.016 108.288 20.72 109.12 19.632C109.984 18.544 111.088 17.696 112.432 17.088C113.808 16.48 115.296 16.176 116.896 16.176C117.824 16.176 118.8 16.304 119.824 16.56C120.848 16.784 121.84 17.152 122.8 17.664C123.76 18.176 124.592 18.848 125.296 19.68C125.616 20.096 125.792 20.592 125.824 21.168C125.888 21.744 125.632 22.256 125.056 22.704C124.672 23.024 124.208 23.168 123.664 23.136C123.12 23.104 122.672 22.928 122.32 22.608C121.712 21.84 120.928 21.248 119.968 20.832C119.008 20.384 117.92 20.16 116.704 20.16C116.096 20.16 115.456 20.256 114.784 20.448C114.144 20.608 113.6 20.912 113.152 21.36C112.704 21.808 112.48 22.464 112.48 23.328C112.48 24.128 112.736 24.768 113.248 25.248C113.792 25.728 114.496 26.128 115.36 26.448C116.224 26.768 117.168 27.056 118.192 27.312C119.184 27.568 120.16 27.872 121.12 28.224C122.112 28.576 122.992 29.04 123.76 29.616C124.56 30.16 125.2 30.88 125.68 31.776C126.192 32.64 126.448 33.744 126.448 35.088C126.448 36.656 125.984 38 125.056 39.12C124.16 40.208 123.008 41.04 121.6 41.616C120.224 42.192 118.768 42.48 117.232 42.48C115.408 42.48 113.584 42.16 111.76 41.52C109.968 40.848 108.448 39.696 107.2 38.064Z" fill="#141414"/>
<path d="M134.394 42C133.722 42 133.146 41.776 132.666 41.328C132.218 40.848 131.994 40.256 131.994 39.552V8.928C131.994 8.224 132.218 7.648 132.666 7.2C133.146 6.72 133.722 6.48 134.394 6.48C135.098 6.48 135.674 6.72 136.122 7.2C136.57 7.648 136.794 8.224 136.794 8.928V39.552C136.794 40.256 136.57 40.848 136.122 41.328C135.674 41.776 135.098 42 134.394 42ZM150.042 16.656C150.65 16.656 151.178 16.912 151.626 17.424C152.074 17.936 152.298 18.448 152.298 18.96C152.298 19.6 151.994 20.192 151.386 20.736L136.362 34.176L136.17 28.656L148.266 17.424C148.778 16.912 149.37 16.656 150.042 16.656ZM150.618 41.952C149.946 41.952 149.37 41.68 148.89 41.136L139.29 31.008L142.938 27.648L152.298 37.776C152.81 38.32 153.066 38.928 153.066 39.6C153.066 40.304 152.778 40.88 152.202 41.328C151.658 41.744 151.13 41.952 150.618 41.952Z" fill="#141414"/>
<path d="M161.448 42C160.68 42 160.056 41.776 159.576 41.328C159.128 40.848 158.904 40.256 158.904 39.552V10.848C158.904 10.144 159.144 9.568 159.624 9.12C160.104 8.64 160.68 8.4 161.352 8.4H177.576C178.28 8.4 178.856 8.624 179.304 9.072C179.784 9.52 180.024 10.08 180.024 10.752C180.024 11.36 179.784 11.888 179.304 12.336C178.856 12.784 178.28 13.008 177.576 13.008H163.56L163.896 12.528V23.232L163.608 22.656H175.416C176.12 22.656 176.696 22.88 177.144 23.328C177.624 23.776 177.864 24.336 177.864 25.008C177.864 25.616 177.624 26.144 177.144 26.592C176.696 27.04 176.12 27.264 175.416 27.264H163.512L163.896 26.88V39.552C163.896 40.256 163.656 40.848 163.176 41.328C162.696 41.776 162.12 42 161.448 42Z" fill="url(#paint0_linear_30_3)"/>
<path d="M204.191 16.56C204.895 16.56 205.471 16.8 205.919 17.28C206.367 17.728 206.59 18.304 206.59 19.008V39.648C206.59 42.464 206.046 44.752 204.958 46.512C203.902 48.272 202.463 49.552 200.639 50.352C198.847 51.184 196.814 51.6 194.542 51.6C193.39 51.6 192.239 51.488 191.087 51.264C189.935 51.072 188.991 50.784 188.255 50.4C187.487 50.048 186.942 49.616 186.622 49.104C186.302 48.592 186.255 48.032 186.479 47.424C186.703 46.656 187.086 46.128 187.63 45.84C188.174 45.584 188.735 45.568 189.311 45.792C189.855 46.016 190.575 46.304 191.471 46.656C192.367 47.008 193.39 47.184 194.542 47.184C196.11 47.184 197.439 46.928 198.527 46.416C199.615 45.904 200.431 45.104 200.975 44.016C201.551 42.928 201.839 41.52 201.839 39.792V36.48L202.607 37.632C202.095 38.688 201.423 39.568 200.59 40.272C199.759 40.976 198.767 41.52 197.615 41.904C196.495 42.288 195.246 42.48 193.87 42.48C192.11 42.48 190.591 42.096 189.311 41.328C188.063 40.528 187.102 39.44 186.43 38.064C185.758 36.656 185.423 35.056 185.423 33.264V19.008C185.423 18.304 185.646 17.728 186.094 17.28C186.542 16.8 187.118 16.56 187.822 16.56C188.494 16.56 189.055 16.8 189.503 17.28C189.983 17.728 190.223 18.304 190.223 19.008V31.968C190.223 34.08 190.687 35.632 191.615 36.624C192.543 37.584 193.919 38.064 195.743 38.064C196.959 38.064 198.015 37.808 198.911 37.296C199.807 36.784 200.511 36.08 201.023 35.184C201.535 34.256 201.79 33.184 201.79 31.968V19.008C201.79 18.304 202.014 17.728 202.462 17.28C202.942 16.8 203.519 16.56 204.191 16.56Z" fill="url(#paint1_linear_30_3)"/>
<path d="M42.58 11.782L22.58 31.782C21.8 32.562 20.54 32.562 19.76 31.782L14.1 26.122C13.32 25.342 13.32 24.082 14.1 23.302C14.88 22.522 16.14 22.522 16.92 23.302L21.16 27.542L39.74 8.96205C40.52 8.18205 41.78 8.18205 42.56 8.96205C43.36 9.74205 43.36 11.002 42.58 11.782ZM24 40.002C14.58 40.002 7.04 31.822 8.1 22.202C8.88 15.162 14.34 9.38205 21.32 8.22205C24.94 7.62205 28.38 8.26205 31.3 9.78205C32.08 10.182 33.02 10.042 33.64 9.42205C34.6 8.46205 34.36 6.84205 33.16 6.22205C30.22 4.72205 26.9 3.90205 23.36 4.00205C13.08 4.32205 4.54 12.682 4.02 22.942C3.44 34.482 12.6 44.002 24 44.002C26.4 44.002 28.68 43.582 30.82 42.802C32.18 42.302 32.56 40.542 31.52 39.502C30.98 38.962 30.16 38.762 29.44 39.042C27.74 39.662 25.9 40.002 24 40.002ZM38 30.002H34C32.9 30.002 32 30.902 32 32.002C32 33.102 32.9 34.002 34 34.002H38V38.002C38 39.102 38.9 40.002 40 40.002C41.1 40.002 42 39.102 42 38.002V34.002H46C47.1 34.002 48 33.102 48 32.002C48 30.902 47.1 30.002 46 30.002H42V26.002C42 24.902 41.1 24.002 40 24.002C38.9 24.002 38 24.902 38 26.002V30.002Z" fill="url(#paint2_linear_30_3)"/>
<defs>
<linearGradient id="paint0_linear_30_3" x1="103.295" y1="0" x2="103.295" y2="53.4524" gradientUnits="userSpaceOnUse">
<stop stop-color="#2B63BC"/>
<stop offset="1" stop-color="#0A229A"/>
</linearGradient>
<linearGradient id="paint1_linear_30_3" x1="103.295" y1="0" x2="103.295" y2="53.4524" gradientUnits="userSpaceOnUse">
<stop stop-color="#2B63BC"/>
<stop offset="1" stop-color="#0A229A"/>
</linearGradient>
<linearGradient id="paint2_linear_30_3" x1="103.295" y1="0" x2="103.295" y2="53.4524" gradientUnits="userSpaceOnUse">
<stop stop-color="#2B63BC"/>
<stop offset="1" stop-color="#0A229A"/>
</linearGradient>
</defs>
</svg>
